<svg xmlns="http://www.w3.org/2000/svg" viewBox="0 0 1024 1024" width="1024" height="1024">
  <defs>
    <linearGradient id="bg" x1="0" y1="0" x2="0.4" y2="1">
      <stop offset="0%" stop-color="#1c1330"/>
      <stop offset="100%" stop-color="#100b1e"/>
    </linearGradient>
    <linearGradient id="hdr" x1="0" y1="0" x2="1" y2="1">
      <stop offset="0%" stop-color="#e879f9"/>
      <stop offset="100%" stop-color="#9333ea"/>
    </linearGradient>
    <linearGradient id="shine" x1="0" y1="0" x2="0" y2="1">
      <stop offset="0%" stop-color="#ffffff" stop-opacity="0.07"/>
      <stop offset="60%" stop-color="#ffffff" stop-opacity="0"/>
    </linearGradient>
    <clipPath id="sq">
      <rect width="1024" height="1024" rx="224" ry="224"/>
    </clipPath>
  </defs>

  <rect width="1024" height="1024" rx="224" ry="224" fill="url(#bg)"/>
  <g clip-path="url(#sq)">
    <!-- Calendar card dark -->
    <rect x="112" y="152" width="800" height="720" rx="56" fill="#231535"/>
    <!-- Header same gradient -->
    <rect x="112" y="152" width="800" height="172" rx="56" fill="url(#hdr)"/>
    <rect x="112" y="268" width="800" height="56" fill="url(#hdr)"/>
    <!-- Ring clips dark -->
    <rect x="276" y="108" width="48" height="92" rx="24" fill="#3b1f6e" opacity="0.9"/>
    <rect x="700" y="108" width="48" height="92" rx="24" fill="#3b1f6e" opacity="0.9"/>
    <rect x="290" y="122" width="20" height="64" rx="10" fill="#7c3aed" opacity="0.3"/>
    <rect x="714" y="122" width="20" height="64" rx="10" fill="#7c3aed" opacity="0.3"/>

    <!-- Weekday colour bars dark -->
    <rect x="130" y="348" width="80" height="18" rx="9" fill="#c084fc" opacity="0.6"/>
    <rect x="244" y="348" width="80" height="18" rx="9" fill="#f472b6" opacity="0.6"/>
    <rect x="358" y="348" width="80" height="18" rx="9" fill="#fb923c" opacity="0.6"/>
    <rect x="472" y="348" width="80" height="18" rx="9" fill="#fbbf24" opacity="0.6"/>
    <rect x="586" y="348" width="80" height="18" rx="9" fill="#4ade80" opacity="0.65"/>
    <rect x="700" y="348" width="80" height="18" rx="9" fill="#60a5fa" opacity="0.65"/>
    <rect x="814" y="348" width="80" height="18" rx="9" fill="#f87171" opacity="0.65"/>

    <!-- Row 1 dark -->
    <rect x="130" y="376" width="80" height="80" rx="20" fill="#1e1230" opacity="0.7"/>
    <rect x="244" y="376" width="80" height="80" rx="20" fill="#1e1230" opacity="0.7"/>
    <rect x="358" y="376" width="80" height="80" rx="20" fill="#2d1a4a"/>
    <text x="398" y="426" text-anchor="middle" font-family="-apple-system,Helvetica Neue,sans-serif" font-size="36" font-weight="800" fill="#c084fc">1</text>
    <rect x="472" y="376" width="80" height="80" rx="20" fill="#3d1f5a" stroke="#c026d3" stroke-width="4"/>
    <text x="512" y="426" text-anchor="middle" font-family="-apple-system,Helvetica Neue,sans-serif" font-size="36" font-weight="800" fill="#d8b4fe">2</text>
    <rect x="586" y="376" width="80" height="80" rx="20" fill="#3d1f5a" stroke="#c026d3" stroke-width="4"/>
    <text x="626" y="426" text-anchor="middle" font-family="-apple-system,Helvetica Neue,sans-serif" font-size="36" font-weight="800" fill="#d8b4fe">3</text>
    <rect x="700" y="376" width="80" height="80" rx="20" fill="#1a1030"/>
    <text x="740" y="426" text-anchor="middle" font-family="-apple-system,Helvetica Neue,sans-serif" font-size="36" font-weight="800" fill="#4b3d6a">4</text>
    <rect x="814" y="376" width="80" height="80" rx="20" fill="#1a1030"/>
    <text x="854" y="426" text-anchor="middle" font-family="-apple-system,Helvetica Neue,sans-serif" font-size="36" font-weight="800" fill="#4b3d6a">5</text>

    <!-- Row 2 dark -->
    <rect x="130" y="468" width="80" height="80" rx="20" fill="#3d1020" stroke="#e11d48" stroke-width="4"/>
    <text x="170" y="518" text-anchor="middle" font-family="-apple-system,Helvetica Neue,sans-serif" font-size="36" font-weight="800" fill="#fda4af">6</text>
    <rect x="244" y="468" width="80" height="80" rx="20" fill="#3d1020" stroke="#e11d48" stroke-width="4"/>
    <text x="284" y="518" text-anchor="middle" font-family="-apple-system,Helvetica Neue,sans-serif" font-size="36" font-weight="800" fill="#fda4af">7</text>
    <rect x="358" y="468" width="80" height="80" rx="20" fill="#3d1f5a" stroke="#c026d3" stroke-width="4"/>
    <text x="398" y="518" text-anchor="middle" font-family="-apple-system,Helvetica Neue,sans-serif" font-size="36" font-weight="800" fill="#d8b4fe">8</text>
    <rect x="472" y="468" width="80" height="80" rx="20" fill="#1a1030"/>
    <text x="512" y="518" text-anchor="middle" font-family="-apple-system,Helvetica Neue,sans-serif" font-size="36" font-weight="800" fill="#4b3d6a">9</text>
    <rect x="586" y="468" width="80" height="80" rx="20" fill="#1a1030"/>
    <text x="626" y="518" text-anchor="middle" font-family="-apple-system,Helvetica Neue,sans-serif" font-size="36" font-weight="800" fill="#4b3d6a">10</text>
    <rect x="700" y="468" width="80" height="80" rx="20" fill="#1a1030"/>
    <text x="740" y="518" text-anchor="middle" font-family="-apple-system,Helvetica Neue,sans-serif" font-size="36" font-weight="800" fill="#4b3d6a">11</text>
    <rect x="814" y="468" width="80" height="80" rx="20" fill="#1a1030"/>
    <text x="854" y="518" text-anchor="middle" font-family="-apple-system,Helvetica Neue,sans-serif" font-size="36" font-weight="800" fill="#4b3d6a">12</text>

    <!-- Row 3 dark -->
    <rect x="130" y="560" width="80" height="80" rx="20" fill="#3d1f5a" stroke="#c026d3" stroke-width="4"/>
    <text x="170" y="610" text-anchor="middle" font-family="-apple-system,Helvetica Neue,sans-serif" font-size="36" font-weight="800" fill="#d8b4fe">13</text>
    <rect x="244" y="560" width="80" height="80" rx="20" fill="#3d1f5a" stroke="#c026d3" stroke-width="4"/>
    <text x="284" y="610" text-anchor="middle" font-family="-apple-system,Helvetica Neue,sans-serif" font-size="36" font-weight="800" fill="#d8b4fe">14</text>
    <rect x="358" y="560" width="80" height="80" rx="20" fill="#1a1030"/>
    <text x="398" y="610" text-anchor="middle" font-family="-apple-system,Helvetica Neue,sans-serif" font-size="36" font-weight="800" fill="#4b3d6a">15</text>
    <rect x="472" y="560" width="80" height="80" rx="20" fill="#3d1020" stroke="#e11d48" stroke-width="4"/>
    <text x="512" y="610" text-anchor="middle" font-family="-apple-system,Helvetica Neue,sans-serif" font-size="36" font-weight="800" fill="#fda4af">16</text>
    <rect x="586" y="560" width="80" height="80" rx="20" fill="#3d1020" stroke="#e11d48" stroke-width="4"/>
    <text x="626" y="610" text-anchor="middle" font-family="-apple-system,Helvetica Neue,sans-serif" font-size="36" font-weight="800" fill="#fda4af">17</text>
    <rect x="700" y="560" width="80" height="80" rx="20" fill="#1a1030"/>
    <text x="740" y="610" text-anchor="middle" font-family="-apple-system,Helvetica Neue,sans-serif" font-size="36" font-weight="800" fill="#4b3d6a">18</text>
    <rect x="814" y="560" width="80" height="80" rx="20" fill="#1a1030"/>
    <text x="854" y="610" text-anchor="middle" font-family="-apple-system,Helvetica Neue,sans-serif" font-size="36" font-weight="800" fill="#4b3d6a">19</text>

    <!-- Row 4 dark -->
    <rect x="130" y="652" width="80" height="80" rx="20" fill="#3d1f5a" stroke="#c026d3" stroke-width="4"/>
    <text x="170" y="702" text-anchor="middle" font-family="-apple-system,Helvetica Neue,sans-serif" font-size="36" font-weight="800" fill="#d8b4fe">20</text>
    <rect x="244" y="652" width="80" height="80" rx="20" fill="#3d1f5a" stroke="#c026d3" stroke-width="4"/>
    <text x="284" y="702" text-anchor="middle" font-family="-apple-system,Helvetica Neue,sans-serif" font-size="36" font-weight="800" fill="#d8b4fe">21</text>
    <rect x="358" y="652" width="80" height="80" rx="20" fill="#1a1030"/>
    <text x="398" y="702" text-anchor="middle" font-family="-apple-system,Helvetica Neue,sans-serif" font-size="36" font-weight="800" fill="#4b3d6a">22</text>
    <rect x="472" y="652" width="80" height="80" rx="20" fill="#3d1020" stroke="#e11d48" stroke-width="4"/>
    <text x="512" y="702" text-anchor="middle" font-family="-apple-system,Helvetica Neue,sans-serif" font-size="36" font-weight="800" fill="#fda4af">23</text>
    <rect x="586" y="652" width="80" height="80" rx="20" fill="#3d1020" stroke="#e11d48" stroke-width="4"/>
    <text x="626" y="702" text-anchor="middle" font-family="-apple-system,Helvetica Neue,sans-serif" font-size="36" font-weight="800" fill="#fda4af">24</text>
    <rect x="700" y="652" width="80" height="80" rx="20" fill="#1a1030"/>
    <text x="740" y="702" text-anchor="middle" font-family="-apple-system,Helvetica Neue,sans-serif" font-size="36" font-weight="800" fill="#4b3d6a">25</text>
    <rect x="814" y="652" width="80" height="80" rx="20" fill="#1a1030"/>
    <text x="854" y="702" text-anchor="middle" font-family="-apple-system,Helvetica Neue,sans-serif" font-size="36" font-weight="800" fill="#4b3d6a">26</text>

    <!-- Row 5 dark -->
    <rect x="130" y="744" width="80" height="80" rx="20" fill="#3d1f5a" stroke="#c026d3" stroke-width="4"/>
    <text x="170" y="794" text-anchor="middle" font-family="-apple-system,Helvetica Neue,sans-serif" font-size="36" font-weight="800" fill="#d8b4fe">27</text>
    <rect x="244" y="744" width="80" height="80" rx="20" fill="#3d1f5a" stroke="#c026d3" stroke-width="4"/>
    <text x="284" y="794" text-anchor="middle" font-family="-apple-system,Helvetica Neue,sans-serif" font-size="36" font-weight="800" fill="#d8b4fe">28</text>
    <rect x="358" y="744" width="80" height="80" rx="20" fill="#1a1030"/>
    <text x="398" y="794" text-anchor="middle" font-family="-apple-system,Helvetica Neue,sans-serif" font-size="36" font-weight="800" fill="#4b3d6a">29</text>
    <rect x="472" y="744" width="80" height="80" rx="20" fill="#3d1020" stroke="#e11d48" stroke-width="4"/>
    <text x="512" y="794" text-anchor="middle" font-family="-apple-system,Helvetica Neue,sans-serif" font-size="36" font-weight="800" fill="#fda4af">30</text>

    <rect width="1024" height="540" rx="224" fill="url(#shine)"/>
  </g>
  <rect width="1024" height="1024" rx="224" ry="224" fill="none" stroke="#ffffff08" stroke-width="2"/>
</svg>
